<!-- Generated by IcoMoon.io -->
<svg version="1.1" xmlns="http://www.w3.org/2000/svg" width="512" height="512" viewBox="0 0 512 512">
<title>blog</title>
<g id="icomoon-ignore">
</g>
<path d="M192 0v48c36.741 0 72.356 7.185 105.858 21.355 32.384 13.697 61.479 33.316 86.474 58.312s44.614 54.090 58.312 86.474c14.171 33.502 21.356 69.119 21.356 105.859h48c0-176.73-143.27-320-320-320z"></path>
<path d="M192 96v48c47.011 0 91.209 18.307 124.45 51.549 33.243 33.242 51.55 77.439 51.55 124.451h48c0-123.711-100.288-224-224-224z"></path>
<path d="M240 192l-32 32-112 32-96 208 12.687 12.687 116.402-116.402c-0.706-2.643-1.089-5.42-1.089-8.285 0-17.673 14.327-32 32-32s32 14.327 32 32-14.327 32-32 32c-2.866 0-5.641-0.382-8.284-1.089l-116.402 116.402 12.686 12.687 208-96 32-112 32-32-80-80z"></path>
</svg>
